<?xml version="1.0" encoding="utf-8"?>
<!-- Generator: Adobe Illustrator 23.1.1, SVG Export Plug-In . SVG Version: 6.00 Build 0)  -->
<svg version="1.1" id="Layer_1" xmlns="http://www.w3.org/2000/svg" xmlns:xlink="http://www.w3.org/1999/xlink" x="0px" y="0px"
	 viewBox="0 0 637.221 208.431" style="enable-background:new 0 0 637.221 208.431;" xml:space="preserve">
<style type="text/css">
	.st0{fill:#FFDFB0;stroke:#000000;stroke-width:4;stroke-linecap:round;stroke-linejoin:round;stroke-miterlimit:10;}
	.st1{fill:none;stroke:#000000;stroke-width:4;stroke-linecap:round;stroke-linejoin:round;stroke-miterlimit:10;}
	.st2{fill:#EA591A;stroke:#000000;stroke-width:4;stroke-linecap:round;stroke-linejoin:round;stroke-miterlimit:10;}
</style>
<path class="st0" d="M317.342,25c1-4,3.926-11.398,7.51-15.249C328.342,6,331.59,3.916,335.342,2c0,0,3,11,3,15"/>
<path class="st0" d="M388.342,29c0,0,0-2-10-4s-15,0-15,0s-7-10-30-5s-26,26-38,26c-4,11,12,37,21,41s25,10,14,24s-17,21-12,26
	s37,17,37,17s-13,18-14,26s-3,23,5,26c4.784,1.794,7.593-2.35,9.241-6.235c2.391-5.637,4.244-11.674,5.706-17.615
	c0.516-2.098,1.078-3.104,3.053-4.149c4-2,19-16,25-23s8-9,8-9s32,5,53,2s36-10,49-11c13-1,34-1,34-1s-29,6-29,16c0,8.062,20,8,25,7
	s11-1,11-1s-19,15-19,22c0,7.28,6,8,10,7s23.841-17.589,33-24c10-7,27-21,25-27s-13-19-13-19s4-4,5-11c0.566-3.96,0-9,0-9
	s23,15,32,27s12,25,7,39s6,14,10,10s11-40-6-60s-48-42-71-50s-49-9-70-7s-54,14-67,15s-30,3-35,0s-9-14-9-14S387.342,40,388.342,29z
	"/>
<path class="st1" d="M368.342,128c0,0,0.294,7.509-3,13c-3,5-10,13-10,13"/>
<path class="st1" d="M341.342,122c0,0,10,9,17,12c6.166,2.642,8.781,2.898,8.781,2.898"/>
<path class="st1" d="M385.342,99c0,0,7,9,13,20c3.647,6.686,9,12,6,17s-7,10-7,10"/>
<path class="st1" d="M528.342,89c-8.414,15.345-10.125,35.482,6,47c5.754,4.11,19,4,17,10s-11,12-11,12"/>
<path class="st1" d="M328.342,40c0,0,3,0,5,2s2,3,2,3"/>
<path class="st1" d="M569.141,81.152c6.343,2.486,10.56,9.03,11.991,15.479"/>
<circle class="st2" cx="148.5" cy="128.564" r="51.5"/>
<path class="st1" d="M199.242,120.01c-6.449,14.85-15.853,28.72-28.799,38.643c-11.851,9.084-26.632,13.706-40.795,17.868"/>
<path class="st1" d="M196.023,110.158c-6.943,15.988-17.069,30.922-31.007,41.606c-12.76,9.781-28.674,14.757-43.923,19.238"/>
<path class="st1" d="M191.804,101.307c-7.312,16.838-17.976,32.565-32.654,43.817c-13.438,10.3-30.198,15.541-46.257,20.26"/>
<path class="st1" d="M136.785,79.88c-2.542,11.911-2.83,24.415,0.013,36.3c3.015,12.603,9.783,22.138,17.69,32.098"/>
<path class="st1" d="M145.223,79.271c-2.487,11.655-2.373,22.91,0.785,34.426c3.305,12.053,8.104,18.963,15.722,28.558"/>
<path class="st1" d="M156.465,78.466c-2.3,10.778-2.242,19.088,0.535,29.773c2.906,11.183,6.014,17.538,13.122,26.49"/>
<path class="st1" d="M153.661,147.981C150.743,144.84,138,135.064,128,131.064c-11.219-4.488-23-7-28.653-6.983"/>
<path class="st1" d="M171.005,174.401c-2.327-5.802-1.991-4.917-6.001-11.276"/>
<path class="st1" d="M182.836,147.29c2.164,2.773,5.633,4.828,9.75,6.888"/>
<path class="st1" d="M177.008,156.728c3.219,3.219,5.633,4.828,9.75,6.888"/>
<path class="st1" d="M169.375,161.556c3.219,3.219,5.633,4.828,9.75,6.888"/>
<path class="st1" d="M142,155.064c-4.141-4.188-9.137-8.402-14.238-11.441c-8.846-5.271-19.597-7.023-29.762-7.559"/>
<path class="st1" d="M158.56,177.627c0,0-0.067-3.262-3.952-9.636"/>
<path class="st1" d="M165.234,80.16c-1.309,8.547-0.415,16.47,1.432,24.944c1.82,8.35,4.722,15.341,10.763,21.452"/>
<path class="st1" d="M188.82,139.228c3.401,3.026,4.295,3.687,8.525,5.503"/>
<path class="st1" d="M180.624,90.548c-4.842,2.885-9.582,5.484-13.694,9.343"/>
<path class="st1" d="M189.472,99.169c-7.63,4.546-13.283,9.291-18.616,16.142"/>
<path class="st1" d="M127.747,159.903c-14.801-13.276-25.737-9.764-25.737-9.764"/>
<path class="st1" d="M144.708,179.627c0,0,0.737-0.043-3.147-6.418"/>
<path class="st1" d="M183,117.064c0,0-2-1-4-3s-3-3-3-3"/>
<path class="st1" d="M199.782,132.786c0,0-1.438,2.215-3.852,3.825s-5.633,2.414-5.633,2.414"/>
<path class="st1" d="M174.114,165.804c0,0-1.52-0.225-3.129,1.384c-1.272,1.272-1.594,3.597-1.594,3.597"/>
<path class="st1" d="M130.781,80.399c-3.025,3.039-5.164,5.695-7.76,9.582c-7.598,11.377-10.852,26.041-12.224,35.439"/>
<path class="st1" d="M135.307,87.065c-1.842,1.969-2.825,3.326-4.487,5.688c-7.696,10.934-10.882,26.164-12.142,34.965"/>
<path class="st1" d="M134.943,103.796c-5.814,10.048-7.518,20.27-8.007,25.994"/>
<path class="st1" d="M137.26,117.982c-2.803,7.951-2.302,14.748-2.302,14.748"/>
<path class="st1" d="M117.875,98.79c0,0-4.229,5.32-8.047,8.047c-5.633,4.023-10.303,5.619-10.303,5.619"/>
<path class="st1" d="M112.879,114.631c-1.85,1.335-3.972,2.735-5.77,3.576c-4.2,1.966-7.778,2.938-9.682,3.366"/>
<path class="st1" d="M121.541,155.713c0,0-1.763-0.399-5.672,0.846c-3.91,1.244-5.753,4.799-5.753,4.799"/>
<path class="st1" d="M108.219,160.459c0,0-24.512-8.355-34.725-2.387c-10.213,5.968-8.171,14.322-21.448,15.516
	c-13.277,1.194-31.661-7.161-39.832-5.968C4.043,168.814,2,172.394,2,172.394"/>
</svg>
