<?xml version="1.0" encoding="utf-8"?>
<!-- Generator: Adobe Illustrator 23.1.1, SVG Export Plug-In . SVG Version: 6.00 Build 0)  -->
<svg version="1.1" id="Layer_1" xmlns="http://www.w3.org/2000/svg" xmlns:xlink="http://www.w3.org/1999/xlink" x="0px" y="0px"
	 viewBox="0 0 314.509 197.5" style="enable-background:new 0 0 314.509 197.5;" xml:space="preserve">
<style type="text/css">
	.st0{fill:#FFDFB0;}
	.st1{fill:#EFEFEF;stroke:#000000;stroke-width:4;stroke-linecap:round;stroke-linejoin:round;stroke-miterlimit:10;}
	.st2{fill:none;stroke:#000000;stroke-width:4;stroke-linecap:round;stroke-linejoin:round;stroke-miterlimit:10;}
</style>
<path class="st0" d="M128.236,27.15c0,0-4.425-9.198-5.646-11.292c-3.593-6.159-8.725-8.725-8.725-8.725S103.6,26.637,102.06,39.468
	c-1.54,12.832,2.053,30.796,2.053,30.796s-20.531,18.991-32.336,35.415S55.353,138.528,54.84,148.28
	c-0.513,9.752,3.08,24.123,3.08,24.123s-18.477,4.106-26.176-2.053s-8.212-14.885-7.186-20.531s8.212-11.805,2.053-16.424
	c-6.159-4.619-21.557-1.54-24.637,17.964s4.619,29.256,12.318,34.902s12.318,6.672,18.477,7.186s32.849,1.027,40.548,1.027
	s43.627-2.566,43.627-2.566s-0.513,3.593,11.292,3.593s13.345-1.027,12.832-5.133c-0.513-4.106,6.672-14.371,8.725-20.017
	c2.053-5.646,5.646-22.584,5.646-22.584s5.646,5.646,17.451,4.619s24.123,7.699,28.743,11.292c4.619,3.593,8.212,3.593,8.725-2.053
	s-4.106-13.345-11.805-16.938c-7.699-3.593-17.451-2.566-25.15-7.699c-7.699-5.133-11.805-20.531-11.805-27.203
	c0-6.672-6.159-34.389-6.159-34.389s8.212-6.672,11.805-12.318c3.593-5.646,5.646-18.991,5.646-18.991s-10.265-3.08-13.858-10.779
	c-3.593-7.699-9.239-9.752-9.239-9.752s0.513-5.133-4.106-12.318c-4.619-7.186-9.239-8.725-9.239-8.725s-3.593,5.646-5.133,10.265
	C129.776,17.398,128.236,27.15,128.236,27.15z"/>
<path class="st1" d="M195.394,183h91.357v0.167c0,4.308-3.525,7.833-7.833,7.833h-75.691c-4.308,0-7.833-3.525-7.833-7.833V183z"/>
<line class="st1" x1="285.798" y1="182.766" x2="312.509" y2="112.571"/>
<path class="st2" d="M128.236,27.663c0,0-2.053-4.619-5.646-9.752c-3.593-5.133-7.699-9.239-7.699-9.239
	s-11.805,13.858-12.832,28.229c-1.027,14.371,2.053,32.336,2.053,32.336s-13.858,9.752-29.256,32.336s-18.991,40.034-18.991,49.273
	c0,9.237,2.565,21.04,2.566,21.044c0.029,0.131-12.812,1.741-13.803,1.764c-6.455,0.145-12.619-2.045-16.762-7.224
	c-5.426-6.783-4.743-14.702-1.734-22.226c2.566-6.416,4.154-11.199-4.655-12.348c-18.904-2.466-21.825,24.986-18.04,37.321
	c2.833,9.232,9.983,20.045,19.579,23.244c12.318,4.106,31.822,2.566,49.786,2.566s37.981-2.053,37.981-2.053"/>
<path class="st2" d="M102.06,125.696c0,0,2.053,19.504,5.646,34.902c3.593,15.398,8.212,30.282,11.292,32.336
	s4.619,2.566,10.779,2.566s12.318-1.027,11.292-6.159c-1.027-5.133-5.646-5.133-5.646-8.212c0-10.87-1.529-21.546-2.566-32.336"/>
<path class="st2" d="M131.316,13.805c1.154-4.458,3.323-8.217,6.159-11.805c0,0,4.106,3.593,6.672,6.672s4.619,7.699,4.619,7.699"/>
<path class="st2" d="M143.121,24.07c0,0,7.699-0.513,14.885,8.725c7.186,9.239,14.885,11.292,14.885,11.292
	s0.513,11.292-8.212,21.557S154.413,75.91,154.413,75.91s8.212,7.186,5.133,44.141s-12.832,54.919-12.832,54.919"/>
<path class="st2" d="M160.572,100.033c0,0,3.524,25.069,6.416,30.026c5.726,9.816,17.828,9.539,27.43,12.827
	c5.033,1.724,10.098,4.623,12.995,9.231c2.2,3.499,5.259,10.493,0.894,13.613c-2.652,1.896-5.354-1.084-7.412-2.522
	c-2.801-1.957-5.767-3.677-8.853-5.142c-6.173-2.931-12.832-4.844-19.625-5.595c-5.295-0.585-10.43-0.353-14.41-4.191"/>
<path class="st2" d="M140.811,44.857c0,0,1.027-1.54,3.08-2.566c2.053-1.027,5.646-0.513,5.646-0.513"/>
</svg>
