<?xml version="1.0" encoding="utf-8"?>
<!-- Generator: Adobe Illustrator 23.1.1, SVG Export Plug-In . SVG Version: 6.00 Build 0)  -->
<svg version="1.1" id="Layer_1" xmlns="http://www.w3.org/2000/svg" xmlns:xlink="http://www.w3.org/1999/xlink" x="0px" y="0px"
	 viewBox="0 0 194.96 94.116" style="enable-background:new 0 0 194.96 94.116;" xml:space="preserve">
<style type="text/css">
	.st0{fill:#A8C9E5;stroke:#000000;stroke-width:4;stroke-miterlimit:10;}
	.st1{fill:#F8F8F8;}
	.st2{fill:#DFCCF1;stroke:#000000;stroke-width:4;stroke-miterlimit:10;}
</style>
<path class="st0" d="M2,50.158V9.039c0-3.824,3.1-6.923,6.923-6.923h76.154C88.9,2.116,92,5.216,92,9.039v76.154
	c0,3.824-3.1,6.923-6.923,6.923H8.923C5.1,92.116,2,89.017,2,85.193v-22.14"/>
<g>
	<path class="st1" d="M15.956,81.679c-1.94,0-3.519-1.578-3.519-3.519V16.073c0-1.94,1.579-3.519,3.519-3.519h62.087
		c1.94,0,3.519,1.579,3.519,3.519V78.16c0,1.94-1.579,3.519-3.519,3.519H15.956z"/>
	<path d="M78.044,14.554c0.837,0,1.519,0.681,1.519,1.519V78.16c0,0.837-0.681,1.519-1.519,1.519H15.956
		c-0.837,0-1.519-0.681-1.519-1.519V16.073c0-0.837,0.681-1.519,1.519-1.519H78.044 M78.044,10.554H15.956
		c-3.048,0-5.519,2.471-5.519,5.519V78.16c0,3.048,2.471,5.519,5.519,5.519h62.087c3.048,0,5.519-2.471,5.519-5.519V16.073
		C83.562,13.025,81.092,10.554,78.044,10.554L78.044,10.554z"/>
</g>
<path class="st2" d="M151.001,92h-41.118c-3.824,0-6.923-3.1-6.923-6.923V8.923c0-3.824,3.1-6.923,6.923-6.923h76.154
	c3.824,0,6.923,3.1,6.923,6.923v76.154c0,3.824-3.1,6.923-6.923,6.923h-22.14"/>
<g>
	<path class="st1" d="M116.916,81.563c-1.94,0-3.52-1.578-3.52-3.519V15.957c0-1.94,1.579-3.519,3.52-3.519h62.087
		c1.94,0,3.519,1.579,3.519,3.519v62.087c0,1.94-1.578,3.519-3.519,3.519H116.916z"/>
	<path d="M179.003,14.438c0.837,0,1.519,0.681,1.519,1.519v62.087c0,0.837-0.681,1.519-1.519,1.519h-62.087
		c-0.838,0-1.519-0.681-1.519-1.519V15.956c0-0.837,0.681-1.519,1.519-1.519H179.003 M179.003,10.438h-62.087
		c-3.048,0-5.519,2.471-5.519,5.519v62.087c0,3.048,2.471,5.519,5.519,5.519h62.087c3.048,0,5.519-2.471,5.519-5.519V15.956
		C184.522,12.908,182.051,10.438,179.003,10.438L179.003,10.438z"/>
</g>
<g>
	<path class="st2" d="M136.077,32.517c-0.269-0.582-0.55-1.255-0.841-2.019c-0.292-0.763-0.55-1.548-0.774-2.355
		c-0.225-0.808-0.427-1.604-0.605-2.389c-0.18-0.784-0.292-1.515-0.336-2.188c1.255-0.447,2.411-0.829,3.466-1.144
		c1.053-0.313,2.063-0.561,3.028-0.74c0.964-0.179,1.918-0.313,2.86-0.404c0.942-0.089,1.928-0.134,2.961-0.134
		c5.427,0,9.51,1.234,12.247,3.701c2.736,2.468,4.105,5.877,4.105,10.229c0,1.975-0.348,3.701-1.043,5.182
		c-0.696,1.48-1.548,2.736-2.557,3.769s-2.076,1.884-3.196,2.557c-1.122,0.673-2.131,1.211-3.028,1.615v6.124
		c-0.987,0.134-1.952,0.247-2.894,0.336c-0.942,0.091-1.795,0.135-2.557,0.135c-0.808,0-1.672-0.044-2.591-0.135
		c-0.92-0.089-1.829-0.202-2.726-0.336V41.669c1.166-0.135,2.31-0.348,3.432-0.64c1.121-0.291,2.12-0.684,2.995-1.178
		c0.875-0.493,1.581-1.11,2.12-1.851c0.538-0.74,0.808-1.625,0.808-2.658c0-1.524-0.562-2.68-1.683-3.465
		c-1.122-0.785-2.625-1.178-4.508-1.178c-0.853,0-1.615,0.033-2.288,0.101s-1.335,0.18-1.985,0.337
		c-0.651,0.157-1.335,0.348-2.052,0.571C137.715,31.935,136.929,32.204,136.077,32.517z M146.71,60.483
		c0.897,0,1.817,0.046,2.759,0.135c0.942,0.091,1.928,0.202,2.961,0.337c0.179,1.032,0.313,2.019,0.404,2.961
		c0.089,0.941,0.134,1.862,0.134,2.759c0,0.897-0.045,1.816-0.134,2.759c-0.091,0.942-0.225,1.93-0.404,2.961
		c-1.033,0.179-2.019,0.313-2.961,0.404c-0.942,0.089-1.862,0.134-2.759,0.134c-0.898,0-1.817-0.045-2.759-0.134
		c-0.942-0.091-1.93-0.226-2.961-0.404c-0.18-1.031-0.314-2.019-0.404-2.961c-0.09-0.942-0.135-1.861-0.135-2.759
		c0-0.896,0.044-1.817,0.135-2.759c0.089-0.942,0.224-1.929,0.404-2.961c1.031-0.135,2.019-0.246,2.961-0.337
		C144.893,60.529,145.812,60.483,146.71,60.483z"/>
</g>
<g>
	<path class="st0" d="M47.365,60.544c0.971,0,1.954,0.049,2.95,0.146c0.995,0.098,2.051,0.243,3.168,0.437
		c0.146,1.118,0.267,2.174,0.364,3.169c0.097,0.995,0.146,1.954,0.146,2.876c0,0.923-0.049,1.894-0.146,2.913
		c-0.098,1.021-0.218,2.089-0.364,3.205c-1.117,0.193-2.173,0.339-3.168,0.437c-0.996,0.097-1.979,0.146-2.95,0.146
		c-0.972,0-1.955-0.049-2.949-0.146c-0.996-0.098-2.052-0.243-3.168-0.437c-0.146-1.116-0.267-2.185-0.364-3.205
		c-0.098-1.02-0.146-1.99-0.146-2.913c0-0.922,0.048-1.881,0.146-2.876c0.097-0.995,0.218-2.051,0.364-3.169
		c1.117-0.193,2.172-0.339,3.168-0.437C45.41,60.592,46.393,60.544,47.365,60.544z M40.883,21.812
		c1.165-0.182,2.294-0.297,3.386-0.343c1.093-0.045,2.124-0.069,3.095-0.069c0.971,0,1.991,0.024,3.059,0.069
		c1.067,0.046,2.209,0.161,3.423,0.343l-0.655,31.971c-1.214,0.229-2.283,0.389-3.205,0.48c-0.923,0.092-1.797,0.137-2.622,0.137
		c-1.505,0-3.448-0.206-5.826-0.617L40.883,21.812z"/>
</g>
</svg>
