<?xml version="1.0" standalone="no"?>
<!DOCTYPE svg PUBLIC "-//W3C//DTD SVG 20010904//EN"
 "http://www.w3.org/TR/2001/REC-SVG-20010904/DTD/svg10.dtd">
<svg version="1.0" xmlns="http://www.w3.org/2000/svg"
 width="656.000000pt" height="656.000000pt" viewBox="0 0 656.000000 656.000000"
 preserveAspectRatio="xMidYMid meet">
<metadata>
Created by potrace 1.11, written by Peter Selinger 2001-2013
</metadata>
<g transform="translate(0.000000,656.000000) scale(0.100000,-0.100000)"
fill="#000000" stroke="none">
<path d="M2834 5338 c-24 -11 -112 -142 -137 -203 -40 -99 -40 -148 1 -176 15
-11 18 -22 14 -48 l-5 -33 -30 48 c-43 71 -113 161 -176 227 -89 94 -127 81
-236 -82 -110 -166 -179 -336 -200 -491 -6 -51 -7 -288 0 -340 2 -19 6 -69 9
-110 6 -76 14 -146 21 -187 2 -16 -5 -29 -23 -44 -110 -85 -319 -312 -453
-492 -253 -338 -405 -644 -474 -953 -36 -161 -38 -359 -5 -533 13 -69 13 -78
-2 -78 -7 0 -42 -4 -78 -9 -160 -20 -269 5 -344 80 -108 108 -117 222 -32 451
61 167 13 273 -142 309 -136 32 -259 -2 -357 -98 -95 -93 -144 -206 -171 -396
-6 -43 -5 -213 1 -255 41 -264 215 -522 420 -623 51 -25 128 -47 235 -67 138
-26 984 -26 1355 0 67 4 215 17 240 20 11 1 36 3 56 4 24 1 45 9 62 27 25 24
26 25 44 6 56 -57 144 -82 286 -83 241 0 347 82 312 241 -4 19 -14 45 -22 57
-13 19 -12 27 12 72 21 43 30 51 53 51 37 0 64 30 100 110 34 75 104 280 122
358 7 28 14 52 16 52 3 0 19 -7 35 -16 31 -16 98 -29 204 -39 240 -24 419 -93
635 -246 45 -31 64 -38 103 -39 109 0 180 85 173 206 -11 166 -131 323 -307
403 -58 26 -146 56 -195 65 -85 17 -233 60 -274 81 -68 35 -124 96 -144 158
-19 58 -68 300 -86 422 -7 44 -14 89 -16 100 -3 11 -11 76 -19 145 -16 128
-50 288 -66 304 -21 23 -11 37 108 161 33 34 116 153 138 196 53 104 83 207
89 308 5 73 -13 104 -77 130 -68 29 -164 100 -212 158 -72 87 -160 168 -213
193 -28 14 -51 29 -52 33 0 5 14 22 30 37 19 18 30 38 30 55 0 68 -129 253
-238 342 -53 43 -79 50 -118 31z"/>
<path d="M6419 3101 c-13 -10 -30 -36 -38 -57 -7 -22 -32 -88 -56 -149 -105
-274 -218 -572 -350 -920 -48 -126 -94 -246 -101 -265 l-14 -35 -893 2 c-567
1 -902 -2 -918 -8 -43 -16 -52 -47 -47 -146 6 -107 36 -173 100 -226 92 -75
44 -71 893 -72 604 0 770 3 807 14 64 18 149 95 177 161 14 32 23 78 25 120 3
58 21 113 126 391 67 178 128 338 135 354 60 139 285 753 285 776 0 65 -79
101 -131 60z"/>
</g>
</svg>
